<svg xmlns="http://www.w3.org/2000/svg" xmlns:xlink="http://www.w3.org/1999/xlink" viewBox="0 0 141.73 141.73"><defs><style>.cls-1{fill:url(#Безымянный_градиент_20);}.cls-2{fill:#fff;}.cls-3{fill:#fa0f0c;}</style><linearGradient id="Безымянный_градиент_20" x1="70.87" y1="141.93" x2="70.87" y2="0.2" gradientUnits="userSpaceOnUse"><stop offset="0" stop-color="#1c4986"/><stop offset="0.05" stop-color="#224e89"/><stop offset="0.12" stop-color="#325b92"/><stop offset="0.19" stop-color="#4d71a0"/><stop offset="0.28" stop-color="#738fb4"/><stop offset="0.36" stop-color="#a4b6ce"/><stop offset="0.45" stop-color="#dee5ed"/><stop offset="0.5" stop-color="#fff"/><stop offset="0.55" stop-color="#dee5ed"/><stop offset="0.64" stop-color="#a4b6ce"/><stop offset="0.72" stop-color="#738fb4"/><stop offset="0.81" stop-color="#4d71a0"/><stop offset="0.88" stop-color="#325b92"/><stop offset="0.95" stop-color="#224e89"/><stop offset="1" stop-color="#1c4986"/></linearGradient></defs><title>Ресурс 1</title><g id="Слой_2" data-name="Слой 2"><g id="Слой_1-2" data-name="Слой 1"><path class="cls-1" d="M141.73,70.87A70.86,70.86,0,0,1,83.49,140.6a70.05,70.05,0,0,1-12.63,1.13A70.87,70.87,0,1,1,70.86,0,70.05,70.05,0,0,1,83.49,1.13,70.88,70.88,0,0,1,141.73,70.87Z"/><path class="cls-2" d="M140.6,83.49a70.05,70.05,0,0,0,1.13-12.63L70.86,99.21,0,70.86A70.05,70.05,0,0,0,1.13,83.49l69.73,29.9Zm1.13-12.63a71.14,71.14,0,0,0-1.13-12.63L70.86,28.34,1.13,58.23A71.14,71.14,0,0,0,0,70.86L70.86,42.52Z"/><path class="cls-3" d="M82.37,33.59l30.29,73.63v.92H93L86.27,90.31H55.07l-6.63,17.83H29.07v-.92L59.36,33.59ZM60,77.19H81.33L70.54,48.78Z"/><path class="cls-2" d="M83.29,1.13A70.13,70.13,0,0,0,70.66,0L99,70.87,70.66,141.73a70.13,70.13,0,0,0,12.63-1.13l29.89-69.73ZM70.66,0A71.05,71.05,0,0,0,58,1.13L28.14,70.87,58,140.6a71.05,71.05,0,0,0,12.63,1.13L42.31,70.87Z"/></g></g></svg>