<svg width="35" height="35" viewBox="0 0 35 35" fill="none" xmlns="http://www.w3.org/2000/svg">
<path d="M11.668 23.332C11.668 27.457 11.668 29.5195 12.9492 30.8008C13.8828 31.7383 15.2344 31.9883 17.5 32.0586M11.668 11.668C11.668 7.54297 11.668 5.48047 12.9492 4.19922C14.2305 2.91797 16.293 2.91797 20.418 2.91797H21.875C26 2.91797 28.0625 2.91797 29.3437 4.19922C30.625 5.48047 30.625 7.54297 30.625 11.668V23.332C30.625 27.457 30.625 29.5195 29.3437 30.8008C28.2227 31.9219 26.5039 32.0625 23.332 32.082" stroke="white" stroke-width="2.1875" stroke-linecap="round"/>
<path d="M4.375 13.8555V21.1445C4.375 24.582 4.375 26.3008 5.44141 27.3711C6.51172 28.4375 8.23047 28.4375 11.668 28.4375M5.44141 7.62891C6.51172 6.5625 8.23047 6.5625 11.668 6.5625" stroke="white" stroke-width="2.1875" stroke-linecap="round"/>
<path d="M8.75 17.5H21.875M21.875 17.5L18.2305 21.1445M21.875 17.5L18.2305 13.8555" stroke="white" stroke-width="2.1875" stroke-linecap="round" stroke-linejoin="round"/>
</svg>
