<svg width="16" height="16" viewBox="0 0 16 16" fill="none" xmlns="http://www.w3.org/2000/svg">
<path fill-rule="evenodd" clip-rule="evenodd" d="M2.37171 0H3.95144C4.38978 0 4.74342 0.353638 4.74342 0.789863C4.74342 1.19432 4.43848 1.5289 4.04461 1.57549L3.95144 1.57973H2.37171C1.96513 1.57973 1.63055 1.88466 1.58608 2.27853L1.57973 2.37171V13.4383C1.57973 13.8448 1.88466 14.1794 2.27853 14.2239L2.37171 14.2302H13.4383C13.8448 14.2302 14.1794 13.9253 14.2239 13.5314L14.2302 13.4383V11.8585C14.2302 11.4202 14.5839 11.0666 15.0201 11.0666C15.4246 11.0666 15.7592 11.3715 15.8057 11.7654L15.81 11.8585V13.4383C15.81 14.7025 14.8232 15.7337 13.578 15.8057L13.4383 15.81H2.37171C1.1075 15.81 0.0762335 14.8232 0.00423493 13.578L0 13.4383V2.37171C0 1.1075 0.986799 0.0762335 2.23195 0.00423493L2.37171 0ZM15.0201 0L15.0836 0.00211747L15.1789 0.0148228L15.2679 0.0381165L15.3547 0.074116L15.4309 0.11435L15.5072 0.16729L15.5792 0.230818L15.6554 0.319757L15.7126 0.406579L15.7359 0.455283L15.7634 0.518811L15.7824 0.580221L15.8057 0.696689L15.81 0.789863V5.53328C15.81 5.9695 15.4563 6.32314 15.0201 6.32314C14.5839 6.32314 14.2302 5.9695 14.2302 5.53328V2.69782L9.2539 7.67417C8.97014 7.95793 8.52121 7.98122 8.21204 7.73982L8.13581 7.67417C7.85205 7.38829 7.82875 6.93936 8.07016 6.6302L8.13581 6.55608L13.11 1.57973H10.2767C9.84047 1.57973 9.48683 1.22609 9.48683 0.789863C9.48683 0.353638 9.84047 0 10.2767 0H15.0201Z" fill="white"/>
</svg>
